<svg xmlns="http://www.w3.org/2000/svg" xmlns:xlink="http://www.w3.org/1999/xlink" width="536.05" height="615.66" viewBox="0 0 536.05 615.66"><defs><style>.a{fill:none;}.b{fill:#2b3990;}.c{opacity:0.7;}.d{clip-path:url(#a);}.e{fill:url(#b);}.f{fill:url(#d);}.g{opacity:0.8;fill:url(#f);}.h{opacity:0.5;fill:url(#h);}</style><clipPath id="a" transform="translate(-83.84 -37.6)"><path class="a" d="M162.19,344.65c0,34.77.08,69.53-.11,104.3,0,4.36,1.29,6.79,5.09,9Q256.68,509.34,346,561.13c4.31,2.5,7.4,2.5,11.64,0q89.72-52,179.62-103.76c3.22-1.85,4.58-3.89,4.58-7.75q-.19-104.57,0-209.11c0-3.81-1.2-5.94-4.46-7.81Q446.59,180.51,356,128.05c-2.83-1.64-5-2-8.06-.21q-90.6,52.51-181.36,104.72c-3.33,1.91-4.45,4-4.44,7.78C162.25,275.11,162.19,309.88,162.19,344.65Z"/></clipPath><radialGradient id="b" cx="349.34" cy="337.22" r="407.16" gradientUnits="userSpaceOnUse"><stop offset="0" stop-color="#bec3e3"/><stop offset="0.02" stop-color="#bbbfe1"/><stop offset="0.12" stop-color="#abafd6"/><stop offset="0.97" stop-color="#2a3b90"/></radialGradient><linearGradient id="d" x1="263.59" y1="309.19" x2="262.75" y2="39.44" gradientUnits="userSpaceOnUse"><stop offset="0.02" stop-color="#abafd6"/><stop offset="1" stop-color="#2a3b90"/></linearGradient><linearGradient id="f" x1="344.8" y1="348.2" x2="164.12" y2="459.12" gradientUnits="userSpaceOnUse"><stop offset="0" stop-color="#abafd6"/><stop offset="1" stop-color="#2a3b90"/></linearGradient><linearGradient id="h" x1="268.86" y1="308.24" x2="460.46" y2="420" xlink:href="#f"/></defs><title>folly_final_logo</title><path class="b" d="M359.29,39.65Q486.67,113.33,614.18,186.8c4.19,2.41,5.72,5,5.71,9.87q-.21,148.55,0,297.1c0,4.5-1.3,7.1-5.34,9.43Q486.46,576.94,358.61,651.07c-4.95,2.88-8.57,3-13.58.06q-127.59-74-255.43-147.48c-4.1-2.37-5.76-5.07-5.76-9.93q.22-148.56,0-297.11c0-4.76,1.41-7.53,5.63-10Q217.32,113.11,345,39.26C347.53,36.8,357.12,37.21,359.29,39.65ZM110.8,344.59c0,44.19.1,88.38-.14,132.56,0,5.54,1.65,8.62,6.47,11.39Q230.88,553.9,344.36,619.71c5.47,3.18,9.4,3.18,14.78,0q114-66.15,228.27-131.86c4.09-2.35,5.82-4.95,5.81-9.86q-.22-132.87,0-265.74c0-4.84-1.53-7.54-5.67-9.92Q472.22,136,357.05,69.34c-3.6-2.09-6.37-2.51-10.25-.26Q231.68,135.8,116.33,202.15c-4.23,2.44-5.66,5.09-5.64,9.89C110.87,256.22,110.8,300.41,110.8,344.59Z" transform="translate(-83.84 -37.6)"/><g class="c"><g class="d"><path class="e" d="M557.51,247.28a35.59,35.59,0,0,0-4.79-17.82l-11.43,6.79h0l11.43-6.78c-3.08-5.34-4.62-4.79-10.14-8L373.46,123.62a35.65,35.65,0,0,0-16.83-4.77.85.85,0,0,1,.15.43l-.24,8h-.14l.22-7.5a.81.81,0,0,1,.16-.45c-6,.06-13.61,1.18-19,4.3l-14.48,8.35a106.37,106.37,0,0,0-17.2,7.64c-37.76,20.83-75.23,42.26-112,64.77A100.6,100.6,0,0,0,180.86,214l-12.42,7.15a35.69,35.69,0,0,0-13.12,13.13.77.77,0,0,1,.48.08c-.14-.09-1.08,1.27-1.14,1.15a35.8,35.8,0,0,0-4.1,16.54l0,32.29c-.47,16.84-.17,33.71-.05,50.58l0,25.15c-.11,13.94-.27,27.89,0,41.82l0,45.56c0,6.52-1.12,7.7,2.09,13.13l9.71-5.45h0l-9.72,5.44A35.73,35.73,0,0,0,165.74,474l169.31,97.54a35.78,35.78,0,0,0,16.37,4.71c-.07-.11,1.58-.24,1.57-.41a.82.82,0,0,1-.17.46,35.61,35.61,0,0,0,17.93-4.8l169.13-97.86c5.41-3.13,10.17-9.13,13.24-14.33a.84.84,0,0,1-.48-.08l-10.3-5.55a.54.54,0,0,1,.07-.13l10.71,5.76a.9.9,0,0,1,.3.35,35.64,35.64,0,0,0,4.28-17Z" transform="translate(-83.84 -37.6)"/></g></g><g class="d"><polygon class="f" points="267.39 60.63 59.09 187.16 266.16 307.83 467.34 190.41 267.39 60.63"/></g><g class="d"><path class="g" d="M350,345.43,147.52,227.27c-.15-.1.4,235.84.4,235.84S352,586,352,585.82Z" transform="translate(-83.84 -37.6)"/></g><g class="d"><polygon class="h" points="472.88 186.85 266.16 307.83 268.15 548.22 472.42 425.17 471.27 424.52 472.88 186.85"/></g></svg>